<svg xmlns="http://www.w3.org/2000/svg" xmlns:xlink="http://www.w3.org/1999/xlink" width="16" height="16" version="1.1" viewBox="0 0 16 16"><title/><g id="Icons with numbers" fill="none" fill-rule="evenodd" stroke="none" stroke-width="1"><g id="Group" fill="#000" transform="translate(-624.000000, -288.000000)"><path id="Rectangle 169 copy" d="M631,297 L631,300 L633,300 L633,297 L635,297 L632,293 L629,297 Z M624,298 C624,296.651721 624.895887,295.507545 626.127761,295.131093 C626.500314,293.897932 627.645295,293 629,293 C629.174013,293 629.344566,293.014816 629.510466,293.043254 C630.195719,291.823839 631.50165,291 633,291 C635.209139,291 637,292.790861 637,295 C638.668415,295.005076 640,296.346276 640,298 C640,299.653483 638.652611,301 636.990522,301 L627.009478,301 C625.336631,301 624,299.656854 624,298 Z M624,298"/></g></g></svg>