<svg xmlns="http://www.w3.org/2000/svg" xmlns:svg="http://www.w3.org/2000/svg" id="svg7384" width="16" height="16" version="1.1"><metadata id="metadata90"/><title id="title9167">Gnome Symbolic Icon Theme</title><path style="fill:#bebebe;fill-opacity:1;stroke:none" id="path3898" d="m 11.40625,1 c -0.455108,0.038189 -0.61564,0.1791748 -1.25,0.625 L 2.84375,7.34375 C 1.9959525,8.0221961 2,8.0144269 2,9 l 0,1 4,0 -3.1875,3.1875 C 1.98932,14.004249 2.00091,13.998722 2,15 l 0,1 1,0.03125 c 0.986227,-0.01956 0.997937,-0.03056 1.84375,-0.625 L 12.15625,9.6875 C 13.004048,9.0090539 13,8.9855731 13,8 L 13,7 9,7 12.1875,3.8125 C 13.01068,2.9957516 12.99909,3.0012778 13,2 l 0,-1 -1,0 c -0.246557,0.00489 -0.442047,-0.0127296 -0.59375,0 z"/></svg>